PathFileType	4	(X/Y/Z)	AB13\squats_1.trc
DataRate	CameraRate	NumFrames	NumMarkers	Units	OrigDataRate	OrigDataStartFrame	OrigNumFrames
200.000000	200.000000	6	35	mm	200.000000	237	316
Frame#	Time	C7			LSHO			STRN			LASI			RASI			LPSI			RPSI			LGTR			RGTR			LTHC			LTHL			LTHR			LKNE			LMKNE			LSHC			LSHL			LSHR			LANK			LMANK			LMT1			LMT5			LCAL			RTHC			RTHL			RTHR			RKNE			RSHC			RSHL			RSHR			RANK			RMANK			RMT1			RMT5			RCAL			RMKNE			
		X1	Y1	Z1	X2	Y2	Z2	X3	Y3	Z3	X4	Y4	Z4	X5	Y5	Z5	X6	Y6	Z6	X7	Y7	Z7	X8	Y8	Z8	X9	Y9	Z9	X10	Y10	Z10	X11	Y11	Z11	X12	Y12	Z12	X13	Y13	Z13	X14	Y14	Z14	X15	Y15	Z15	X16	Y16	Z16	X17	Y17	Z17	X18	Y18	Z18	X19	Y19	Z19	X20	Y20	Z20	X21	Y21	Z21	X22	Y22	Z22	X23	Y23	Z23	X24	Y24	Z24	X25	Y25	Z25	X26	Y26	Z26	X27	Y27	Z27	X28	Y28	Z28	X29	Y29	Z29	X30	Y30	Z30	X31	Y31	Z31	X32	Y32	Z32	X33	Y33	Z33	X34	Y34	Z34	X35	Y35	Z35	

238	33.875	-3479.743851683061	1236.765939182672	2465.931179478027	-3554.503907324383	1182.66690047878	2605.974493497499	-3586.574724257157	1095.430078176887	2451.601594415833	-3476.463849155695	745.1956823805748	2575.7067785995	-3455.509337465064	728.3171204390525	2302.116358739681	-3260.236562853489	844.8059761556613	2505.16651739735	-3263.958772402756	857.4676214465931	2429.783044789954	-3373.773597824747	756.8181141652395	2657.581112308652	-3339.090534188699	739.0699426131854	2242.431737420629	-3467.783548394028	606.3538216830808	2662.487880785171	-3470.783160384392	458.0949843119137	2578.468516333472	-3544.721628397534	633.3137120120731	2592.987393483912	-3619.681667141044	431.4478777380833	2664.231759272821	-3626.614871008191	415.7504681570849	2547.953157920531	-3483.102047737173	226.8951014431051	2688.635418458879	-3561.450659111472	224.5664367843758	2649.124476446949	-3431.091716095784	207.5279379245528	2617.694702955449	-3414.371227123632	97.3175558938787	2682.812359304939	-3453.560250629424	97.73808936453986	2602.872447662671	-3558.687753744802	56.84717003217384	2654.72568459183	-3512.708867301934	52.34846371289558	2731.144183597286	-3356.880667603935	73.79113179594435	2634.662408571779	-3457.077681701347	456.5403713881699	2301.111480802167	-3422.221522463707	611.4957003611253	2225.287950186204	-3534.084049457741	631.4715624456331	2291.668068008242	-3581.606596354658	436.1921147359745	2213.571104580805	-3420.091929606205	193.6733162328768	2316.572099951673	-3467.945429280317	223.3750382635816	2236.553785959333	-3552.371661013373	238.7950100058719	2253.478159972909	-3410.264862548407	100.2306168470188	2265.789969286674	-3456.698755736529	100.4174928212911	2339.631538997762	-3555.837297885485	55.16165075869177	2278.130829788356	-3481.408252922563	45.25269153631704	2208.453145946243	-3350.511512032476	68.91589627514261	2320.026764059698	-3616.778820920215	435.2167089861339	2328.381499164049	
239	33.88	-3478.399293673604	1241.196956067378	2465.824638555422	-3553.365458932687	1187.381017017126	2605.850440560069	-3585.761989754532	1100.40963248867	2451.334770425516	-3477.269143962394	749.0849956708171	2575.520370128413	-3455.884837828026	732.2173218398914	2301.932871933587	-3260.801774972483	848.2731023400712	2505.253448197633	-3264.389608942721	861.0225863325065	2429.847526012657	-3374.54901042783	759.9384225228916	2657.344221062733	-3339.229348664182	742.1714194047645	2242.58266139338	-3468.023340488442	608.3987993938171	2662.300092108117	-3469.911295100099	460.267192689712	2577.832554682317	-3545.289925305188	634.8653894940148	2593.020323828792	-3618.578415314802	432.1852720021704	2663.664341401017	-3625.31533000636	416.4978885393342	2547.400912228212	-3482.384151466093	227.1984651164073	2688.451202744151	-3560.733519732744	225.0731198567826	2648.912533008952	-3430.421253707984	207.5475379943958	2617.583077294342	-3414.183090759297	97.24376650774163	2682.94420478287	-3453.305810732345	97.80203217404365	2602.980231593552	-3558.559821145936	56.9533881453076	2654.682756955039	-3512.653318277868	52.41421949362483	2731.139931358914	-3356.722975293434	73.68808657122658	2634.778939213372	-3455.903036163827	458.5008653342487	2301.433468110936	-3421.746420186651	613.6483974148355	2225.171154886507	-3534.098585437355	633.0616469828523	2290.834428837532	-3579.906329391983	437.0943547867772	2213.270033966383	-3419.512591427751	193.7091662021566	2316.562670050777	-3467.041433556983	223.6276460403295	2236.451695412034	-3551.450879623728	239.388736533092	2253.127505805271	-3410.004640934295	100.2294926299364	2265.73321669347	-3456.617947924826	100.5138145454966	2339.476340599852	-3555.692226858714	55.2658404469647	2277.848759286769	-3481.187847788765	45.21736154288006	2208.276569864805	-3350.466861764585	68.84355514808142	2320.054171582461	-3615.566638573985	436.2011436450957	2327.872232732036	
240	33.885	-3477.04268734472	1245.604574979284	2465.717012334919	-3552.207820151143	1192.079253320291	2605.724746182478	-3584.944767512063	1105.380198860852	2451.056954976318	-3478.108402945465	752.9606267446784	2575.320673776249	-3456.261418931895	736.0897133317092	2301.74487336136	-3261.394445585205	851.7206996229686	2505.34922615042	-3264.839987676687	864.5582023758501	2429.920638645302	-3375.368343096629	763.0419545538557	2657.094051066251	-3339.376578345394	745.24526415183	2242.741007798228	-3468.287574596772	610.4379736486752	2662.107936970658	-3469.051984215666	462.4257404317041	2577.192978503212	-3545.876216014166	636.3943538896287	2593.0398975993	-3617.475390226704	432.9220533717251	2663.087305380015	-3624.011644993064	417.2414213260803	2546.839617744981	-3481.666675114656	227.5040127366806	2688.259433825908	-3560.015586591099	225.5834444493704	2648.695029457113	-3429.752105808037	207.5663784830893	2617.465766732946	-3413.999302704908	97.1718663864367	2683.075300132577	-3453.055905242737	97.86574828223516	2603.085231542241	-3558.433378412818	57.06123894409165	2654.635437543791	-3512.600681411595	52.48448414466806	2731.134358968711	-3356.568891123181	73.58576895077974	2634.890164526097	-3454.729454796644	460.4529563272469	2301.786028035388	-3421.273660496222	615.7907181649176	2225.072282832087	-3534.106596178547	634.6304929603455	2290.019412642915	-3578.195562503344	437.9987274380902	2212.995867851358	-3418.929379319631	193.7404288442268	2316.562020959316	-3466.129437325666	223.8809490390882	2236.361821341541	-3550.520410309515	239.9842065329963	2252.783836632046	-3409.737675634716	100.2272099627992	2265.676150505337	-3456.533584590116	100.6132720615175	2339.317079648487	-3555.541092951961	55.37431442480816	2277.557710895533	-3480.960608643203	45.18064291307888	2208.095341532829	-3350.418417282638	68.76866145443591	2320.078550694798	-3614.34207013747	437.1783848184133	2327.388927984017	
241	33.89	-3475.675552091016	1249.98703926873	2465.609079353801	-3551.031325549586	1196.758672713305	2605.598670878172	-3584.123582373368	1110.339110207115	2450.768397758184	-3478.981239836825	756.8226921074013	2575.106732133116	-3456.639662437194	739.9330036585517	2301.550897368086	-3262.013868291996	855.1482265315615	2505.453096892867	-3265.309439899469	868.0735183401157	2430.001948227127	-3376.230850042137	766.1289838303335	2656.830297356868	-3339.532310064851	748.2902017013705	2242.905146513385	-3468.574036689805	612.4713498923682	2661.911958512981	-3468.204222438058	464.5704328678689	2576.552388883697	-3546.478961830788	637.9007100189787	2593.047154207512	-3616.370768965205	433.6585364968079	2662.504077505607	-3622.703925824505	417.98198507353	2546.272819247614	-3480.949669767284	227.8111157254169	2688.062489139561	-3559.296615106334	226.0976340534891	2648.473717947854	-3429.083563709116	207.5849364974499	2617.345399317883	-3413.819229075774	97.10199410637935	2683.205438541143	-3452.810320561924	97.92967448817141	2603.187963840888	-3558.308250474096	57.17099811786261	2654.584444632751	-3512.55040190526	52.55854202944304	2731.127761514648	-3356.418128121888	73.48407691839341	2634.996966620591	-3453.558183366437	462.3978371879631	2302.169495998737	-3420.804897872864	617.9213154725142	2224.991735619617	-3534.1090787765	636.17725685555	2289.224104386099	-3576.476727591578	438.904563281548	2212.751505444523	-3418.342847461908	193.7669465841251	2316.570563073148	-3465.210954558049	224.1349365726953	2236.285250843318	-3549.581662882503	240.5813821236853	2252.449468187583	-3409.464920582045	100.2232956353702	2265.618986960218	-3456.445484577412	100.7158519415597	2339.154237170737	-3555.384772080616	55.4864665311998	2277.259210195079	-3480.727778336353	45.14291130776383	2207.910261051917	-3350.366329337478	68.69152258267464	2320.099775213386	-3613.105075304566	438.1481955838311	2326.935448258688	
242	33.895	-3474.299436928051	1254.342784378665	2465.501545240195	-3549.836487900196	1201.416472348162	2605.473449435946	-3583.298958872329	1115.283741042501	2450.469470750437	-3479.88711173269	760.6714515188792	2574.877753270646	-3457.020253826755	743.7464696273969	2301.34973380491	-3262.659227852857	858.5551841687519	2505.56433194231	-3265.79745171756	871.5676460912938	2430.09106827961	-3377.135492359236	769.1999269274197	2656.552919705587	-3339.696728548822	751.3054230736352	2243.073581378655	-3468.880402403762	614.4990211247803	2661.712706936956	-3467.366851275286	466.7013673219143	2575.913404838549	-3547.096395804649	639.3847141030602	2593.043121989269	-3615.262659774662	434.3950930692322	2661.917972332761	-3621.392165415346	418.7205338391311	2545.703936249439	-3480.233139610534	228.1191963117574	2687.86271908054	-3558.576338330889	226.6159242357793	2648.250311681641	-3428.41493453808	207.6036773072136	2617.224519029601	-3413.642226864889	97.03432599311351	2683.334312791724	-3452.568830923538	97.99423601491672	2603.288928669214	-3558.184258482414	57.2828765341721	2654.530528196338	-3512.501947248724	52.63561603775492	2731.120384919645	-3356.27041532477	73.38301393641159	2635.100246308819	-3452.390429993952	464.3368442558183	2302.584014015451	-3420.341819806255	620.0389466100708	2224.92990296172	-3534.107145596827	637.7012320800496	2288.449589701448	-3574.752280812783	439.8112310594951	2212.539792277076	-3417.753561434742	193.7886220014123	2316.588645674756	-3464.287573552385	224.389662107826	2236.222960889208	-3548.636104030048	241.1802927592401	2252.126812264461	-3409.187427402163	100.2173381354592	2265.561932545424	-3456.353484911043	100.821428513742	2338.988352171877	-3555.224227647719	55.6016285498066	2276.954953743363	-3480.490715016767	45.1045459439275	2207.722170579086	-3350.310794727081	68.61249934065195	2320.11772912166	-3611.855670860532	439.1104100574464	2326.515595610325	
243	33.9	-3472.915892492373	1258.670431386179	2465.395025826374	-3548.623993371443	1206.049999525136	2605.350256050182	-3582.471402851852	1120.211521992572	2450.160669573668	-3480.825298348535	764.5072524194183	2574.633141656627	-3457.403994441234	747.5299064556461	2301.140446239207	-3263.329607860936	861.9410941579529	2505.682231306501	-3266.303474903094	875.0397499844875	2430.187656452611	-3378.080948045692	772.2553172936898	2656.262159262844	-3339.870161794244	754.2906158305826	2243.244978833041	-3469.204284976605	616.5211581005233	2661.510731287749	-3466.538580724587	468.8188996624731	2575.278602553214	-3547.726549920697	640.8467575344521	2593.028793601017	-3614.14913560988	435.1321419638002	2661.332138347738	-3620.076235990499	419.458036830516	2545.136208969817	-3479.517038322862	228.4277465918641	2687.662394955799	-3557.854468452608	227.138556716362	2648.026461099193	-3427.745562526239	207.6230425227493	2617.105534427146	-3413.467664752551	96.96906666808739	2683.461538411225	-3452.331203921131	98.05983267963596	2603.388603866544	-3558.061230601575	57.39700856811133	2654.474457405469	-3512.454823194294	52.71488072726988	2731.112430274355	-3356.125508379288	73.28269095449305	2635.200902361442	-3451.22734968525	466.271404643114	2303.02954297214	-3419.886153384972	622.1425044062541	2224.887157804517	-3534.10201330866	639.201850241666	2287.696999263716	-3573.024684338622	440.7181451935716	2212.363498008752	-3417.16209315475	193.8054177801426	2316.616558435086	-3463.360938600524	224.6452448990486	2236.175813338681	-3547.685238014441	241.7810296164324	2251.818356057732	-3408.90632395415	100.2089998159787	2265.505190333466	-3456.257449358728	100.9297639170883	2338.820021376909	-3555.060491795482	55.71908516822225	2276.646781052792	-3480.250869779345	45.06591975156496	2207.531947642413	-3350.252049590722	68.53199696039168	2320.132307418497	-3610.593936614859	440.0649216877287	2326.133076839585	
